<svg width="625" height="685" viewBox="0 0 625 685" fill="none" xmlns="http://www.w3.org/2000/svg">
<g clip-path="url(#clip0_1477_107)">
<path d="M11.9782 370.979C9.39358 375.735 8.043 380.555 6.73712 385.64C5.57601 391.377 3.55909 396.916 3.31666 402.953C0.973303 409.792 2.04305 417.412 0.302465 424.474C-0.0525837 437.321 -0.217492 450.201 0.508968 463.036C2.04189 470.072 2.28453 477.199 3.62916 484.246C5.87287 488.295 5.67134 493.505 7.90129 497.39C9.20364 502.898 12.3226 507.158 15.3692 512.011C19.8019 516.35 23.8304 522.05 28.6482 526.271C35.675 532.954 43.3907 538.888 51.373 544.35C56.5214 547.951 61.5631 550.808 67.1179 553.845C71.5328 556.591 75.386 558.765 80.0387 560.394C85.2185 563.569 91.9293 565.972 97.9625 568.212C117.456 575.827 137.638 581.811 158.2 585.811C181.2 590.798 204.57 594.25 227.082 601.273C241.419 605.357 255.852 609.138 270.634 611.216C284.038 612.657 297.776 612.726 311.114 610.516C330.694 606.457 349.148 597.133 363.779 583.521C371.274 576.555 379.218 569.902 385.771 562.043C387.88 558.369 398.154 550.769 391.527 548.02C385.387 543.909 378.024 542.254 371.206 539.383C365.436 537.561 359.307 535.111 353.292 533.081C347.296 530.421 340.013 529.877 334.533 526.834C318.329 522.695 301.4 523.875 284.836 524.164C273.078 524.831 261.424 527.483 250.138 530.55C244.493 532.794 237.584 534.435 231.37 536.081C214.651 540.74 196.922 542.675 179.692 540.136C169.012 537.979 158.328 535.521 147.832 532.752C142.46 530.406 136.339 529.5 130.775 527.668C123.375 524.981 116.514 521.877 109.358 518.762C102.48 515.178 95.9986 511.718 90.062 506.897C81.7077 501.111 74.9731 493.206 67.9706 485.872C63.9568 481.376 60.8174 475.644 57.2977 470.846C55.1883 467.03 52.9258 463.443 51.1814 459.47C48.8863 455.842 48.0692 451.17 45.8244 447.592C44.2333 443.412 42.4291 439.594 41.7108 435.04C39.3096 431.888 39.6795 427.203 37.4387 424.035C36.3416 419.444 34.9272 415.205 33.5714 410.809C31.9312 406.884 31.8203 402.105 29.0529 398.865C28.2281 394.007 25.9026 390.061 24.3471 385.64C22.2442 381.367 20.6237 377.03 17.9022 372.955C16.2729 370.723 14.241 366.901 11.9782 370.979Z" fill="#004239"/>
<path d="M128.329 102.903C122.031 103.74 116.597 106.283 110.233 107.549C97.5087 111.097 85.1641 115.875 72.9456 120.84C69.3932 123.246 65.2137 124.246 61.9497 126.72C55.9638 129.105 50.2963 133.158 44.9022 136.947C38.0973 141.7 31.3696 146.797 25.5607 152.885C21.1123 157.565 17.4144 162.588 14.2835 167.504C12.3756 170.836 11.1191 174.645 8.92644 177.771C7.87474 182.78 5.85737 187.198 5.05918 192.254C3.30915 198.019 3.49932 204.272 2.04156 210.21C1.58826 223.441 1.46118 236.712 2.18532 249.934C3.75495 256.836 3.7472 263.983 5.07609 270.879C6.34101 277.485 7.90586 283.822 8.92644 290.536C11.2537 294.962 10.6579 300.768 13.1986 305.121C13.428 310.093 16.2352 313.906 16.8654 318.659C18.8482 322.276 19.4128 326.487 20.992 330.266C22.2186 334.87 24.4108 338.864 25.6979 343.525C27.1171 347.575 29.3812 351.324 30.4627 355.659C32.3729 359.181 33.3384 363.227 35.2478 366.762C37.1666 370.58 37.4362 375.269 40.0329 378.704C41.1224 383.394 43.2562 387.331 44.1464 392.152C46.3872 395.321 46.0174 400.006 48.4186 403.158C48.9031 407.983 51.7443 411.722 52.0853 416.563C53.9074 420.363 54.6769 424.542 56.212 428.427C57.4386 433.031 59.6308 437.024 60.9179 441.685C62.8189 445.23 64.2556 449.234 66.2749 452.757C68.0193 456.73 70.2819 460.317 72.3912 464.133C76.2134 468.701 79.2498 474.292 84.0231 478.898C88.5198 484.555 94.2789 489.52 100.284 493.626C104.408 497.704 110.395 499.73 114.566 502.85C119.69 504.517 124.344 507.836 130.006 509.409C142.591 514.022 155.952 517.079 169.419 516.52C169.236 511.424 170.118 506.006 167.98 501.313C168.289 494.443 166.027 488.374 165.552 481.647C163.273 476.244 163.936 469.617 161.28 464.356C161.038 458.72 158.227 454.128 157.613 448.681C155.466 445.039 155.111 440.548 152.894 437.04C151.855 432.336 149.637 428.338 147.616 424.232C145.929 420.048 143.202 416.525 140.908 412.672C137.666 407.185 133.119 402.206 129.168 397.339C125.01 391.665 119.328 387.125 115.354 381.39C110.92 376.411 105.96 371.847 102.472 366.489C97.8138 361.503 94.3189 356.075 90.5935 350.402C87.6764 345.693 84.6741 341.526 82.2078 336.978C80.5428 333.161 78.1611 329.836 76.93 325.725C74.7717 322.005 72.9882 317.752 72.0787 313.348C70.1833 309.286 68.5155 305.173 67.1135 300.902C65.7154 296.291 63.7156 292.003 63.2462 286.904C60.8608 282.026 61.2296 275.961 58.9722 270.908C58.7273 263.527 56.322 256.618 57.0587 249.088C57.2098 241.901 56.454 234.429 58.6616 227.605C58.9422 221.718 60.7405 216.232 62.082 210.712C63.3496 206.775 64.0947 202.389 66.6005 199.22C67.281 194.129 71.0962 191.141 72.3912 186.455C76.0232 182.036 78.7821 176.627 83.3922 172.306C87.3117 166.394 92.6985 161.592 97.302 156.197C102.7 150.007 108.86 144.486 114.073 138.14C119.241 132.339 124.506 126.566 129.168 120.521C132.562 115.853 136 111.391 138.984 106.358C140.563 102.334 138.125 101.42 134.618 102.076C132.519 102.14 130.311 102.118 128.329 102.903Z" fill="#004239"/>
<path d="M306.104 0.524951C299.717 2.0403 292.706 2.6196 286.817 5.76438C282.148 6.92132 277.143 8.61953 272.907 11.2524C268.183 12.8195 264.269 15.1044 259.746 17.8485C253.353 20.5428 248.261 25.1056 242.273 28.3311C236.441 32.9204 230.021 37.1139 224.441 42.2318C215.783 49.0647 208.372 57.4834 200.486 65.2255C195.764 69.8113 192.008 74.5843 187.866 79.4117C183.699 84.0314 180.12 89.2453 176.126 93.7574C171.554 99.8804 166.902 106.059 161.524 111.514C157.533 117.332 151.763 121.84 147.614 127.459C142.748 133.527 136.609 138.63 132.123 144.906C127.956 149.669 123.065 154.018 119.795 159.089C115.063 164.198 110.967 169.072 107.117 174.785C102.97 178.865 99.9818 184.902 96.4616 189.318C94.5511 192.614 93.3195 196.496 91.1046 199.518C89.5675 203.319 87.9635 206.811 85.8065 210.193C85.322 215.018 82.4808 218.757 82.1397 223.598C79.8862 229.807 78.667 236.642 78.7905 243.563C77.4225 250.118 76.0238 257.279 78.621 263.777C78.4167 271 79.6027 277.777 80.7751 284.692C83.0238 288.694 82.4864 294.026 85.0472 297.712C86.967 301.565 87.7984 310.578 93.7662 307.955C100.672 305.125 106.147 300.048 112.735 296.603C117.953 292.102 123.837 289.32 129.18 284.962C137.519 278.314 146.008 271.484 152.646 263.148C156.428 258.316 160.156 253.949 162.709 248.886C164.319 244.762 167.35 241.506 168.579 237.14C170.874 233.479 171.708 228.871 173.936 225.196C174.76 220.625 176.816 216.814 177.803 212.39C178.866 207.743 181.075 203.706 181.67 198.778C183.824 194.534 183.511 189.073 185.942 184.853C185.976 178.731 189.176 173.814 189.609 167.879C191.508 164.01 191.72 159.381 194.328 155.982C195.23 151.269 198.057 147.776 199.852 143.544C202.716 138.962 205.693 134.217 209.669 129.75C214.434 123.839 219.264 117.764 224.746 112.28C237.091 99.5176 250.906 88.3218 264.85 77.3843C270.214 74.3049 275.105 69.794 280.44 67.3843C286.146 64.1346 291.126 60.7846 297.245 58.6139C308.02 54.2052 319.494 51.0703 331.242 51.9111C358.04 52.176 384.132 58.9487 410.074 64.9242C419.549 66.2302 429.085 68.9741 438.7 67.9131C444.54 64.4516 433.525 58.3363 431.332 54.4829C426.511 49.2297 420.502 45.4173 415.139 40.8186C409.273 36.4994 403.608 32.2323 397.37 28.6182C392.237 24.2978 386.386 21.9934 380.568 18.5532C374.072 15.1412 367.231 11.8547 360.612 9.08925C356.268 6.73629 351.208 5.40428 346.979 3.66757C334.827 -0.232259 321.733 -0.12558 309.059 0.0805958L307.662 0.191568L306.104 0.524951Z" fill="#004239"/>
<path d="M303.169 204.876C293.372 206.692 283.333 207.648 273.681 210.049C268.514 212.393 262.027 213.371 256.559 215.846C250.755 218.47 244.165 220.538 239.364 224.309C233.335 226.343 228.541 231.388 222.873 234.444C213.943 240.855 206.173 248.734 198.717 256.82C193.879 262.198 190.079 268.121 186.188 274.055C183.577 278.466 180.659 282.116 179.234 286.986C176.532 290.403 175.412 294.799 173.935 299.059C171.737 302.828 170.534 307.403 169.417 311.809C168.215 317.725 166.118 323.455 165.997 329.716C163.676 337.95 164.629 346.832 164.394 355.4C164.146 362.526 164.842 369.538 166.063 376.411C166.475 382.287 168.955 387.385 169.663 393.167C171.994 396.396 171.703 401.101 173.935 404.229C175.764 408.046 176.576 412.305 179.234 415.497C180.197 420.126 183.724 422.971 185.024 427.456C188.394 431.569 190.723 436.279 194.574 440.593C201.627 449.498 210.062 457.632 219.074 464.713C224.776 468.893 230.592 472.973 236.692 476.638C252.284 485.132 268.981 491.526 286.608 494.336C306.146 497.743 326.409 496.386 345.317 490.4C356.395 487.751 366.344 481.835 376.533 476.924C387.514 469.924 397.473 461.241 405.894 451.297C409.854 447.404 411.64 442.81 414.28 438.495C416.171 434.73 418.15 430.943 419.311 426.749C420.731 421.787 422.872 416.896 422.731 411.36C425.901 405.555 422.129 400.108 422.421 393.82C420.068 389.692 419.928 384.232 416.203 381.165C414.892 376.049 409.913 375.65 408.41 380.606C405.073 385.628 400.858 390.903 397.262 396.276C392.641 401.216 388.545 407.442 383.294 412.37C374.44 421.09 366.121 430.655 355.537 437.25C350.552 440.937 344.15 443.402 338.284 446.09C327.734 450.262 316.439 452.265 305.095 451.458C295.242 451.248 285.453 449.76 275.877 447.515C268.303 443.673 259.696 441.494 252.711 436.373C246.611 432.786 241.02 428.326 235.728 423.394C231.482 418.315 226.069 413.496 223.086 407.872C220.358 404.759 219.234 400.503 216.89 397.253C215.407 393.224 213.127 389.885 212.184 385.64C209.946 380.489 208.505 374.771 207.925 368.909C205.487 361.248 206.601 352.802 206.328 344.756C205.872 337.545 207.345 330.779 208.504 323.853C210.663 320.301 210.167 315.323 212.776 312.032C213.869 307.151 216.159 303.058 218.3 298.755C221.023 294.772 223.117 290.549 226.44 286.64C233.539 277.96 242.002 270.24 251.252 263.833C256.862 260.499 261.563 257.959 267.454 255.406C282.708 249.362 299.247 246.179 315.659 246.483C331.55 247.726 347.703 250.554 362.148 257.485C366.723 259.291 370.608 261.239 374.867 263.987C380.038 267.508 385.666 270.822 390.189 275.44C398.697 283.463 407.079 291.796 414.28 300.903C418.187 305.892 421.973 310.327 424.589 315.635C427.516 319.033 429.984 322.847 431.89 326.911C434.156 330.714 436.625 334.263 438.273 338.524C440.213 342.271 442.007 346.377 443.63 350.402C445.185 354.823 447.511 358.769 448.336 363.627C450.627 367.391 450.159 372.657 452.608 376.434C453.69 383.03 455.774 389.28 456.193 396.097C455.317 402.696 458.995 408.525 457.644 415.109C454.876 421.367 457.447 428.879 454.67 435.162C454.521 441.659 453.374 448.034 451.423 453.99C451.357 460.774 448.197 466.48 447.756 473.101C445.867 478.194 445.189 483.654 443.63 488.834C441.841 493.459 441.584 498.68 439.503 503.215C438.638 508.151 437.148 512.897 435.244 517.359C434.245 522.362 431.941 526.575 430.538 531.456C428.606 535.255 426.804 539.324 425.181 543.368C423.199 547.872 420.141 551.48 417.634 555.952C413.405 561.346 409.856 566.937 404.956 572.092C398.501 580.775 390.316 588.299 382.364 595.75C377.437 599.766 372.618 604.002 367.458 607.511C361.818 610.989 356.211 614.673 350.548 618.18C346.233 620.072 342.507 622.087 338.049 624.201C326.636 628.377 315.016 633.448 302.557 632.787C285.677 632.964 268.805 630.795 252.6 626.03C246.771 624.234 240.356 623.634 234.826 621.393C228.772 619.031 221.81 618.32 215.477 616.343C204.278 613.328 192.483 611.345 180.906 612.776C177.517 616.664 187.147 621.308 188.576 625.588C193.264 629.285 197.205 633.813 202.041 637.819C208.12 643.553 214.501 649.12 221.451 653.707C226.648 657.335 231.88 661.077 237.441 664.294C242.582 667.588 248.561 670.845 254.514 673.421C269.219 680.25 285.285 684.029 301.525 683.968C321.745 685.121 342.466 681.435 360.251 671.481C366.6 667.962 372.779 664.086 378.854 660.196C393.202 649.508 406.601 637.606 419.115 624.805C424.413 619.504 429.386 613.895 434.406 608.36C439.706 602.278 444.936 596.116 450.438 590.196C455.348 584.149 460.031 578.085 465.605 572.568C476.187 560.446 488.286 549.706 498.886 537.594C505.678 531.255 511.322 523.937 517.524 517.106C520.719 512.322 524.651 507.817 527.487 503.097C529.902 499.112 532.971 495.544 535.034 491.351C536.699 487.534 539.081 484.209 540.312 480.098C543.061 477.036 542.807 472.295 545.031 468.837C546.034 463.28 548.764 458.321 548.698 452.312C551.672 445.722 548.862 437.81 550.967 430.944C552.87 425.088 548.79 418.899 550.113 412.484C549.96 405.796 548.144 399.484 546.774 393.19C545.473 388.855 545.041 383.885 542.256 380.44C541.338 375.312 536.562 366.966 531.029 373.772C525.136 379.431 518.577 384.308 512.606 389.887C507.289 393.893 502.595 398.81 496.77 401.954C492.602 399.955 499.332 393.764 495.269 389.782C494.12 381.463 495.647 372.871 493.944 364.665C492.967 358.307 492.001 352.086 490.915 345.699C488.752 341.22 489.404 335.394 486.643 331.205C485.953 326.385 483.735 322.494 482.53 317.848C480.629 314.302 479.192 310.299 477.173 306.775C475.191 302.271 472.133 298.663 469.626 294.191C465.692 289.131 462.311 283.982 457.886 279.089C451.974 272.875 447.249 265.454 439.978 260.601C434.582 255.32 428.658 250.782 422.931 245.935C417.398 241.827 411.563 238.119 406.032 234.247C400.933 230.994 395.078 227.901 390.413 224.802C384.506 222.277 379.258 219.421 373.399 217.051C359.173 210.927 343.969 206.869 328.518 205.4C320.089 204.978 311.598 204.278 303.169 204.876Z" fill="#004239"/>
<path d="M330.332 72.2349C318.681 75.1964 306.214 75.9281 295.206 81.0476C288.338 84.1047 281.117 86.7914 275.081 91.284C269.27 94.6271 263.408 98.7539 258.188 103.324C252.697 108.509 247.054 113.969 242.376 119.682C239.1 123.927 234.444 128.918 233.695 133.74C244.097 141.576 257.108 144.531 268.856 149.696C280.734 153.575 292.619 157.726 304.823 160.37C315.698 160.948 326.672 161.007 337.536 160.611C354.18 157.219 370.761 153.415 386.784 147.695C401.09 143.388 415.416 137.874 430.625 138.473C447.087 138.59 463.011 143.369 479.086 146.367C486.592 148.513 494.448 150.099 501.491 153.451C508.394 156.362 515.91 159.33 522.045 163.931C528.339 166.349 533.466 171.584 538.799 175.75C544.618 181.176 550.352 186.884 555.164 193.092C558.526 197.825 562.287 201.441 564.062 206.803C566.453 209.996 567.923 214.059 570.012 217.496C571.646 221.872 573.238 226.082 575.223 230.289C576.006 235.068 578.713 239.021 579.482 243.851C581.286 247.806 581.539 252.432 583.609 256.297C584.427 261.244 586.8 265.537 587.276 270.674C589.605 273.922 589.322 278.589 591.548 281.77C592.835 286.431 595.027 290.425 596.254 295.028C598.284 299.78 599.832 304.859 604.111 308.653C609.446 309.626 611.685 302.115 613.797 298.523C615.157 292.262 616.927 286.088 617.464 279.481C619.54 273.707 619.323 267.149 620.557 261.079C620.185 253.587 622.917 246.562 622.218 239.009C621.961 229.945 623.11 220.532 620.71 211.783C620.926 205.148 619.002 199.012 618.056 192.673C616.38 187.751 616.169 182.149 613.864 177.571C612.138 173.489 609.653 169.87 607.155 166.245C602.864 160.363 596.84 154.778 591.498 149.36C585.3 142.592 577.492 137.848 570.47 132.088C565.611 128.649 560.148 126.583 555.164 122.894C551.575 121.087 547.739 119.826 544.608 117.411C539.297 115.597 534.33 112.298 528.474 110.534C522.037 107.13 514.318 105.114 508.005 102.576C502.546 101.273 497.387 99.0852 491.558 98.1155C467.61 91.217 442.636 89.5865 418.282 84.7201C408.65 82.5184 399.096 79.8264 389.408 78.0267C383.217 75.3469 375.728 75.3408 369.034 73.8195C356.23 72.355 343.202 71.7304 330.332 72.2349Z" fill="#004239"/>
<path d="M453.069 163.864C446.035 166.305 453.359 174.35 451.42 179.984C453.312 186.157 454.19 192.497 455.05 199.022C457.392 204.117 456.761 210.457 459.322 215.473C459.589 220.915 462.123 225.413 462.989 230.566C465.194 234.085 465.027 238.754 467.708 241.951C468.747 246.654 470.965 250.652 472.986 254.758C474.711 258.841 477.196 262.459 479.694 266.085C483.709 271.145 487.636 277.663 493.059 281.689C506.132 293.928 520.669 304.902 531.686 319.091C535.664 323.26 537.846 328.022 541.235 332.077C542.883 336.338 545.352 339.887 547.618 343.69C549.495 347.592 550.381 352.203 552.975 355.601C554.262 360.262 556.455 364.256 557.681 368.86C559.574 373.145 560.858 377.763 561.94 382.421C564.176 386.476 564.745 391.235 566.067 395.707C567.926 401.502 568.374 407.75 570.194 413.631C570.653 420.042 572.433 426.209 571.894 432.807C571.739 442.238 572.469 451.808 571.098 461.147C569.772 467.027 569.669 473.543 567.418 478.964C566.241 483.702 564.936 488.059 563.305 492.536C561.204 496.068 559.74 499.938 558.007 503.803C554.858 507.693 552.052 512.706 548.457 516.543C539.593 526.919 529.535 536.268 519.107 545.045C508.107 554.309 497.653 564.3 488.08 575.042C485.033 578.551 478.072 585.904 485.46 586.874C505.552 583.625 524.48 575.767 543.436 568.654C547.383 566.235 551.313 564.788 555.166 562.664C559.962 560.019 565.743 557.314 570.404 553.757C576.779 550.365 582.414 545.875 588.128 541.491C593.974 536.366 600.128 530.983 604.049 524.386C607.113 521.133 609.347 517.19 610.758 512.818C613.182 509.539 614.793 505.465 615.609 501.28C617.913 496.681 618.043 491.181 619.736 486.317C620.578 480.302 621.807 474.318 622.236 468.184C621.46 461.597 624.075 455.608 623.924 449.118C624.645 442.56 621.662 436.647 622.251 430.105C622.829 423.659 619.988 417.974 620.332 411.542C618.463 405.687 618.022 399.556 616.707 393.488C614.447 388.749 615.082 382.655 612.435 378.065C611.959 372.927 609.586 368.634 608.768 363.687C606.785 360.071 606.221 355.86 604.641 352.08C603.647 347.644 601.052 343.915 600.382 339.357C598.411 334.917 596.426 330.645 595.171 325.849C592.59 322.517 591.683 318.335 589.873 314.458C587.932 310.712 586.139 306.606 584.516 302.58C583.257 298.263 580.337 294.951 579.81 290.194C577.923 286.143 575.75 282.031 575.045 277.311C572.187 273.828 572.604 268.788 570.326 264.964C569.45 260.492 567.693 256.372 566.067 252.241C565.072 247.806 562.478 244.077 561.808 239.518C559.732 235.429 557.659 231.483 556.596 226.849C554.357 223.596 552.852 220.042 551.298 216.298C547.955 212.104 545.417 207.457 541.748 202.946C536.614 196.395 530.635 190.336 524.147 185.123C518.221 180.604 512.354 177.019 505.998 173.535C499.668 171.522 493.971 167.764 487.352 166.633C477.148 164.212 466.564 162.528 456.067 163.125C455.048 163.278 454.04 163.515 453.069 163.864Z" fill="#004239"/>
</g>
<defs>
<clipPath id="clip0_1477_107">
<rect width="624.034" height="684.167" fill="white"/>
</clipPath>
</defs>
</svg>
