<svg width="306" height="526" viewBox="0 0 306 526" fill="none" xmlns="http://www.w3.org/2000/svg">
<path d="M258 0C284.51 0 306 21.4903 306 48V515.4C306 523.697 296.478 528.386 289.902 523.327L159.285 422.837C155.69 420.071 150.685 420.071 147.09 422.837L16.0977 523.615C9.52157 528.675 0 523.987 0 515.689V48C0 21.4903 21.4903 9.1819e-07 48 0H258ZM219 327C197.461 327 180 344.461 180 366C180 387.539 197.461 405 219 405C240.539 405 258 387.539 258 366C258 344.461 240.539 327 219 327ZM219 347C229.493 347 238 355.507 238 366C238 376.493 229.493 385 219 385C208.507 385 200 376.493 200 366C200 355.507 208.507 347 219 347ZM165.946 365.565C165.364 360.907 161.115 357.603 156.457 358.186L133.326 361.077C128.668 361.659 125.363 365.907 125.945 370.565C126.528 375.224 130.776 378.528 135.435 377.945L158.565 375.055C163.223 374.472 166.529 370.224 165.946 365.565ZM87.1484 352.309C82.7819 350.585 77.8447 352.727 76.1211 357.094C74.3975 361.46 76.5397 366.397 80.9062 368.121L103.094 376.879C107.46 378.602 112.397 376.46 114.121 372.094C115.845 367.727 113.702 362.79 109.336 361.066L87.1484 352.309ZM50.8379 321.463C47.8334 317.856 42.4741 317.368 38.8672 320.372C35.2602 323.377 34.7719 328.737 37.7764 332.344L53.043 350.672C56.0475 354.279 61.4068 354.767 65.0137 351.763C68.6207 348.758 69.1089 343.398 66.1045 339.791L50.8379 321.463ZM221.165 289.22C219.97 284.68 215.32 281.97 210.78 283.165L192.389 288.008C187.849 289.203 185.138 293.853 186.334 298.393C187.529 302.932 192.178 305.643 196.718 304.447L215.109 299.604C219.649 298.409 222.361 293.759 221.165 289.22ZM55.9404 265.034C51.5552 263.359 46.6413 265.555 44.9658 269.94L36.8477 291.189C35.1723 295.575 37.3688 300.488 41.7539 302.163C46.139 303.839 51.0519 301.642 52.7275 297.257L60.8467 276.008C62.5221 271.623 60.3254 266.71 55.9404 265.034ZM151.552 262.021C147.967 258.99 142.603 259.439 139.572 263.023C136.541 266.608 136.991 271.972 140.576 275.003L156.533 288.494C160.118 291.525 165.481 291.076 168.512 287.491C171.543 283.906 171.094 278.543 167.509 275.512L151.552 262.021ZM247.763 251.295C243.359 249.668 238.47 251.919 236.843 256.322L230.252 274.161C228.625 278.565 230.875 283.454 235.278 285.081C239.682 286.708 244.571 284.457 246.198 280.054L252.789 262.214C254.416 257.811 252.166 252.922 247.763 251.295ZM81.4941 245.322C76.8032 245.145 72.8565 248.803 72.6787 253.494C72.501 258.185 76.1596 262.132 80.8506 262.31L106.604 263.286C111.295 263.464 115.242 259.805 115.42 255.114C115.598 250.423 111.939 246.476 107.248 246.298L81.4941 245.322ZM245.975 200.107C244.123 195.794 239.125 193.797 234.812 195.648C230.498 197.5 228.501 202.498 230.353 206.812L239.928 229.125C241.779 233.439 246.777 235.435 251.091 233.584C255.405 231.733 257.401 226.734 255.55 222.42L245.975 200.107ZM192.822 84.8076C187.746 79.731 179.514 79.7313 174.438 84.8076L145.446 113.799L118.577 86.9297C113.5 81.8529 105.269 81.8529 100.192 86.9297C95.1156 92.0065 95.1156 100.238 100.192 105.314L127.062 132.184L95.9482 163.297C90.8714 168.374 90.8715 176.605 95.9482 181.682C101.025 186.758 109.256 186.758 114.333 181.682L145.446 150.568L176.56 181.682C181.636 186.758 189.868 186.758 194.944 181.682C200.021 176.605 200.021 168.374 194.944 163.297L163.831 132.184L192.822 103.192C197.899 98.1155 197.899 89.8843 192.822 84.8076Z" fill="#602F0F"/>
</svg>
