<svg width="281" height="116" viewBox="0 0 281 116" fill="none" xmlns="http://www.w3.org/2000/svg">
<path d="M259 0C271.15 2.80252e-06 281 9.84974 281 22V94C281 106.15 271.15 116 259 116H22C9.84974 116 0 106.15 0 94V22C7.73159e-07 9.84974 9.84974 5.39566e-07 22 0H259ZM104.049 43.3672C102.768 43.3672 102.415 44.1999 102.991 45.8652L113.689 77L113.594 77.4805C113.295 78.6549 112.686 80.0647 111.768 81.709C110.871 83.3529 109.558 84.1748 107.828 84.1748C107.252 84.1748 106.633 84.068 105.971 83.8545C105.074 83.5769 104.529 83.8974 104.337 84.8154L103.632 88.3389C103.44 89.2783 103.749 89.834 104.561 90.0049C105.97 90.3038 107.572 90.4531 109.365 90.4531C112.632 90.4531 115.185 89.3854 117.021 87.25C118.858 85.1146 120.406 82.1465 121.666 78.3457L132.46 45.8652C133.015 44.1999 132.663 43.3673 131.403 43.3672H125.67C124.688 43.3672 124.047 43.9119 123.748 45.001L119.167 62.0098C118.633 63.9528 118.302 65.2659 118.174 65.9492C118.067 66.6111 117.886 67.508 117.63 68.6396H117.438C117.437 68.2765 117.342 67.4438 117.149 66.1416C116.979 64.8177 116.776 63.739 116.541 62.9062L111.704 45.001C111.405 43.912 110.764 43.3673 109.782 43.3672H104.049ZM81.1777 42.7266C76.2451 42.7266 72.4228 44.2857 69.7109 47.4033C67.0204 50.521 65.6748 54.7811 65.6748 60.1836C65.6748 65.5862 66.9778 69.8462 69.583 72.9639C72.1882 76.0816 76.5549 77.6406 82.6836 77.6406C86.4632 77.6406 89.2284 77.256 90.9795 76.4873C92.7305 75.7186 94.2579 74.5549 95.5605 72.9961C96.4572 71.9285 96.2754 71.0099 95.0156 70.2412L91.8125 68.2871C90.7449 67.6466 89.8481 67.7968 89.1221 68.7363C88.4815 69.5477 87.6914 70.1884 86.752 70.6582C85.8124 71.128 84.456 71.3623 82.6836 71.3623C80.8259 71.3623 79.1925 70.9034 77.7832 69.9854C76.3739 69.0672 75.4979 66.8356 75.1562 63.291H96.2969C97.4926 63.291 98.0907 62.6501 98.0908 61.3691C98.0908 54.8348 96.7028 50.0934 93.9268 47.1465C91.1507 44.1997 86.9006 42.7266 81.1777 42.7266ZM26.8535 31.0674C25.3587 31.0674 24.6113 31.8682 24.6113 33.4697V74.5977C24.6113 76.1992 25.3587 77 26.8535 77H31.7217C33.2165 77 33.9639 76.1992 33.9639 74.5977V62.6816L39.3457 56.6279L51.1328 75.1104C51.9443 76.3702 52.9052 77 54.0156 77H60.0059C61.9915 76.9999 62.3971 76.0815 61.2227 74.2451L45.623 49.7734L60.1973 33.8223C61.8842 31.9858 61.4789 31.0674 58.9805 31.0674H52.542C51.7306 31.0675 50.7487 31.6974 49.5957 32.957L34.0283 50.0615H33.8037C33.9105 48.7803 33.9639 47.499 33.9639 46.2178V33.4697C33.9639 31.8682 33.2165 31.0674 31.7217 31.0674H26.8535ZM139.795 31.0674C138.3 31.0675 137.553 31.8683 137.553 33.4697V74.5977C137.553 76.1991 138.3 76.9999 139.795 77H165.58C167.182 77 167.982 76.306 167.982 74.918V71.1387C167.982 69.7507 167.182 69.0566 165.58 69.0566H146.906V33.4697C146.906 31.8682 146.266 31.0674 144.984 31.0674H139.795ZM175.927 43.3672C174.646 43.3672 174.005 44.0078 174.005 45.2891V75.0781C174.005 76.3594 174.646 77 175.927 77H181.052C182.333 76.9999 182.974 76.3593 182.974 75.0781V45.2891C182.974 44.0079 182.333 43.3673 181.052 43.3672H175.927ZM209.943 42.7266C207.808 42.7266 205.983 43.047 204.467 43.6875C202.951 44.3067 201.701 45.4597 200.719 47.1465H200.591V45.2891C200.591 44.0079 199.95 43.3673 198.669 43.3672H193.607C192.326 43.3673 191.686 44.0079 191.686 45.2891V75.0781C191.686 76.3592 192.326 76.9999 193.607 77H198.732C200.014 77 200.654 76.3594 200.654 75.0781V62.458C200.654 56.97 201.221 53.3605 202.353 51.6309C203.484 49.8801 205.171 49.0049 207.413 49.0049C209.527 49.0049 210.904 49.6132 211.545 50.8301C212.186 52.0472 212.506 54.9837 212.506 59.6387V75.0781C212.506 76.3592 213.147 76.9999 214.428 77H219.553C220.834 77 221.475 76.3594 221.475 75.0781V57.333C221.475 51.7809 220.386 47.9579 218.208 45.8652C216.03 43.7726 213.275 42.7266 209.943 42.7266ZM232.045 29.7217C230.764 29.7218 230.123 30.3626 230.123 31.6436V75.0781C230.123 76.3592 230.764 76.9999 232.045 77H237.17C238.451 77 239.092 76.3594 239.092 75.0781V68.5439L243.16 63.6426L250.432 75.334C251.115 76.4443 251.99 76.9999 253.058 77H258.535C260.222 77 260.553 76.2099 259.528 74.6299L248.317 57.4287L257.99 45.7373C259.293 44.1572 258.962 43.3673 256.998 43.3672H251.744C250.762 43.3673 249.929 43.8053 249.246 44.6807L239.092 57.749H238.964C239.049 56.8949 239.092 56.0406 239.092 55.1865V31.6436C239.092 30.3624 238.451 29.7217 237.17 29.7217H232.045ZM81.8828 49.0371C84.4026 49.0371 86.2395 49.7736 87.3926 51.2471C88.5455 52.6991 89.1221 54.5787 89.1221 56.8848H75.1885C75.2952 54.4504 75.9359 52.5384 77.1104 51.1504C78.2848 49.7412 79.8757 49.0371 81.8828 49.0371ZM175.927 30.4902C174.646 30.4902 174.005 31.1311 174.005 32.4121V36.5127C174.005 37.7938 174.646 38.4346 175.927 38.4346H181.052C182.333 38.4345 182.974 37.7938 182.974 36.5127V32.4121C182.974 31.1312 182.333 30.4903 181.052 30.4902H175.927Z" fill="#CCCCCC"/>
</svg>
