<svg width="187" height="226" viewBox="0 0 187 226" fill="none" xmlns="http://www.w3.org/2000/svg">
<path d="M138.947 117.129L144.632 117.22L144.632 117.22L138.947 117.129ZM93.7518 58.7384L90.7884 53.8859L82.6057 58.883L90.9153 63.6661L93.7518 58.7384ZM137.843 125.254L132.333 123.852L143.207 127.141L137.843 125.254ZM143.092 99.4753L148.724 100.252L148.724 100.252L143.092 99.4753ZM165.994 30.8243L161.163 27.8256L161.163 27.8257L165.994 30.8243ZM165.028 29.4528L166.54 34.9337L166.54 34.9336L165.028 29.4528ZM138.947 117.129L144.632 117.22C145.065 90.2372 123.265 69.1658 96.5882 53.8106L93.7518 58.7384L90.9153 63.6661C117.039 78.7034 133.587 96.7816 133.262 117.038L138.947 117.129ZM137.843 125.254L143.353 126.656C144.134 123.588 144.581 120.427 144.632 117.22L138.947 117.129L133.262 117.038C133.226 119.308 132.909 121.589 132.333 123.852L137.843 125.254ZM143.092 99.4753L137.459 98.6983C136.15 108.188 135.038 116.095 132.48 123.367L137.843 125.254L143.207 127.141C146.215 118.591 147.449 109.499 148.724 100.252L143.092 99.4753ZM165.994 30.8243L161.163 27.8257C143.242 56.6972 140.063 79.8263 137.459 98.6983L143.092 99.4753L148.724 100.252C151.277 81.7499 154.208 60.5918 170.824 33.8229L165.994 30.8243ZM165.028 29.4528L166.54 34.9336C164.305 35.5506 162.29 34.4723 161.297 33.0439C160.336 31.6626 160.059 29.6044 161.163 27.8256L165.994 30.8243L170.824 33.8229C172.357 31.3536 171.988 28.5015 170.634 26.553C169.247 24.5574 166.534 23.1387 163.515 23.9719L165.028 29.4528ZM93.7518 58.7384L96.7152 63.5909C116.887 51.2722 142.292 41.626 166.54 34.9337L165.028 29.4528L163.515 23.9719C138.671 30.8286 112.176 40.8248 90.7884 53.8859L93.7518 58.7384Z" fill="#CCCCCC"/>
<path d="M138.947 117.132C139.613 75.5751 79.7533 46.5392 26.5023 31.8424C25.7188 31.6262 25.1076 32.5234 25.5363 33.214C60.7802 89.9924 36.8194 123.126 70.4316 151.489C97.9346 174.697 138.469 146.954 138.947 117.132Z" fill="#CCCCCC" stroke="#CCCCCC" stroke-width="11.3716"/>
<path d="M5.82227 142.245C5.82227 200.349 80.1854 169.249 93.8746 214.125C94.1947 215.174 97.6254 215.188 97.9525 214.141C111.72 170.07 181.002 202.898 181.002 142.245" stroke="#CCCCCC" stroke-width="11.3716" stroke-linecap="round" stroke-linejoin="round"/>
</svg>
