<svg width="36" height="40" viewBox="0 0 36 40" fill="none" xmlns="http://www.w3.org/2000/svg">
<g clip-path="url(#clip0_1522_288)">
<path d="M0.689738 21.3614C0.540909 21.6353 0.463138 21.9129 0.387942 22.2056C0.321082 22.536 0.204943 22.8549 0.190983 23.2026C0.0560455 23.5964 0.117644 24.0352 0.0174168 24.4418C-0.00302792 25.1816 -0.0125238 25.9233 0.0293078 26.6623C0.117578 27.0675 0.13155 27.4779 0.208977 27.8837C0.338176 28.1168 0.326572 28.4168 0.454978 28.6405C0.529971 28.9577 0.709568 29.203 0.884999 29.4824C1.14025 29.7323 1.37222 30.0605 1.64964 30.3036C2.05427 30.6884 2.49856 31.0301 2.9582 31.3446C3.25466 31.552 3.54497 31.7165 3.86484 31.8914C4.11906 32.0495 4.34094 32.1747 4.60885 32.2685C4.90712 32.4513 5.29355 32.5897 5.64096 32.7186C6.76346 33.1571 7.92557 33.5017 9.10963 33.732C10.434 34.0192 11.7797 34.218 13.076 34.6224C13.9016 34.8576 14.7327 35.0753 15.5838 35.1949C16.3557 35.2779 17.1468 35.2819 17.9148 35.1546C19.0423 34.9209 20.1049 34.384 20.9474 33.6002C21.379 33.1991 21.8364 32.816 22.2138 32.3634C22.3352 32.1519 22.9268 31.7142 22.5452 31.556C22.1917 31.3192 21.7677 31.2239 21.3751 31.0586C21.0428 30.9537 20.6899 30.8126 20.3435 30.6957C19.9983 30.5425 19.5789 30.5112 19.2634 30.336C18.3303 30.0977 17.3555 30.1656 16.4016 30.1823C15.7246 30.2206 15.0535 30.3734 14.4036 30.5499C14.0786 30.6792 13.6808 30.7737 13.3229 30.8685C12.3602 31.1368 11.3393 31.2482 10.3472 31.1019C9.73217 30.9778 9.117 30.8362 8.51259 30.6767C8.20324 30.5417 7.85077 30.4895 7.53037 30.384C7.10427 30.2293 6.70921 30.0506 6.29716 29.8712C5.90107 29.6648 5.52787 29.4655 5.18603 29.188C4.70496 28.8548 4.31716 28.3996 3.91394 27.9773C3.68281 27.7184 3.50204 27.3883 3.29936 27.1121C3.1779 26.8923 3.04762 26.6858 2.94717 26.457C2.81501 26.2481 2.76796 25.979 2.6387 25.773C2.54708 25.5323 2.44319 25.3125 2.40182 25.0502C2.26356 24.8687 2.28485 24.599 2.15582 24.4165C2.09265 24.1522 2.01121 23.9081 1.93314 23.655C1.83869 23.4289 1.8323 23.1537 1.67295 22.9672C1.62546 22.6874 1.49154 22.4602 1.40198 22.2056C1.28088 21.9596 1.18757 21.7098 1.03086 21.4752C0.93704 21.3467 0.820037 21.1266 0.689738 21.3614Z" fill="#646464"/>
<path d="M7.39485 5.92592C7.03216 5.97415 6.71929 6.12056 6.35282 6.19344C5.62012 6.39778 4.90928 6.6729 4.20571 6.95882C4.00115 7.09735 3.76048 7.15494 3.57253 7.29738C3.22784 7.43474 2.9015 7.6681 2.59089 7.88628C2.19904 8.15994 1.81164 8.45347 1.47715 8.80403C1.22099 9.07351 1.00806 9.36277 0.827774 9.64586C0.717912 9.83768 0.645561 10.057 0.519301 10.237C0.458741 10.5255 0.342575 10.7799 0.296613 11.071C0.195841 11.403 0.206792 11.763 0.12285 12.105C0.0967476 12.8669 0.0894299 13.631 0.131128 14.3924C0.221512 14.7898 0.221066 15.2013 0.297587 15.5985C0.370425 15.9789 0.460533 16.3438 0.519301 16.7304C0.653314 16.9853 0.619003 17.3195 0.765302 17.5702C0.778516 17.8565 0.94016 18.0761 0.976446 18.3498C1.09063 18.558 1.12313 18.8005 1.21407 19.0182C1.2847 19.2832 1.41093 19.5132 1.48505 19.7816C1.56677 20.0148 1.69714 20.2307 1.75942 20.4803C1.86942 20.6831 1.92501 20.9161 2.03496 21.1197C2.14545 21.3395 2.16097 21.6095 2.3105 21.8073C2.37324 22.0774 2.49611 22.3041 2.54737 22.5817C2.6764 22.7642 2.6551 23.0339 2.79337 23.2155C2.82127 23.4933 2.98487 23.7086 3.00451 23.9874C3.10943 24.2062 3.15374 24.4468 3.24214 24.6705C3.31277 24.9356 3.439 25.1656 3.51311 25.434C3.62258 25.6381 3.70531 25.8686 3.82159 26.0715C3.92204 26.3003 4.05232 26.5068 4.17378 26.7266C4.39387 26.9896 4.56872 27.3115 4.84358 27.5768C5.10251 27.9026 5.43413 28.1884 5.77992 28.4248C6.01741 28.6597 6.36212 28.7764 6.60233 28.956C6.89736 29.052 7.16535 29.2431 7.49142 29.3337C8.21606 29.5993 8.98545 29.7753 9.76092 29.7432C9.75039 29.4497 9.80115 29.1377 9.67803 28.8675C9.69585 28.4719 9.56561 28.1225 9.53824 27.7351C9.40699 27.4239 9.44518 27.0424 9.29224 26.7394C9.27829 26.4149 9.11645 26.1505 9.08109 25.8368C8.95746 25.6271 8.93702 25.3685 8.80936 25.1665C8.74952 24.8956 8.62179 24.6654 8.50545 24.429C8.4083 24.188 8.25129 23.9852 8.11916 23.7633C7.93246 23.4474 7.67066 23.1606 7.44313 22.8804C7.20373 22.5537 6.87655 22.2923 6.64768 21.962C6.39241 21.6753 6.10676 21.4125 5.9059 21.104C5.63769 20.8169 5.43644 20.5043 5.22192 20.1776C5.05395 19.9064 4.88106 19.6665 4.73905 19.4046C4.64317 19.1848 4.50603 18.9934 4.43514 18.7567C4.31085 18.5425 4.20816 18.2975 4.15579 18.044C4.04664 17.8101 3.95061 17.5732 3.86987 17.3273C3.78937 17.0617 3.67422 16.8148 3.64719 16.5212C3.50983 16.2404 3.53106 15.8911 3.40108 15.6002C3.38698 15.1751 3.24847 14.7773 3.29089 14.3437C3.29959 13.9299 3.25607 13.4996 3.38319 13.1066C3.39935 12.7676 3.5029 12.4517 3.58015 12.1339C3.65314 11.9072 3.69604 11.6546 3.84034 11.4721C3.87952 11.179 4.09921 11.0069 4.17378 10.7371C4.38292 10.4826 4.54179 10.1711 4.80725 9.92238C5.03295 9.5819 5.34313 9.30542 5.60822 8.99472C5.91904 8.63829 6.27376 8.32041 6.57396 7.95498C6.8715 7.62095 7.17472 7.28854 7.44313 6.94045C7.63857 6.6716 7.83653 6.41471 8.0084 6.1249C8.0993 5.89318 7.9589 5.84056 7.757 5.87831C7.63608 5.88198 7.50897 5.8807 7.39485 5.92592Z" fill="#646464"/>
<path d="M17.6362 0.0302282C17.2683 0.117486 16.8646 0.150844 16.5255 0.331929C16.2567 0.398549 15.9685 0.496337 15.7246 0.647942C15.4526 0.738183 15.2271 0.869756 14.9667 1.02777C14.5986 1.18291 14.3054 1.44565 13.9606 1.63139C13.6247 1.89565 13.2551 2.13712 12.9337 2.43182C12.4352 2.82528 12.0084 3.31005 11.5543 3.75587C11.2825 4.01993 11.0661 4.29478 10.8276 4.57275C10.5877 4.83877 10.3816 5.13899 10.1516 5.39881C9.88839 5.7514 9.62046 6.10719 9.31082 6.42128C9.08101 6.7563 8.74874 7.0159 8.50986 7.33946C8.22963 7.68885 7.87615 7.9827 7.61782 8.34412C7.37785 8.61839 7.09624 8.86881 6.90792 9.16078C6.63546 9.455 6.39961 9.73563 6.17788 10.0646C5.9391 10.2995 5.76704 10.6472 5.56433 10.9015C5.45432 11.0912 5.3834 11.3148 5.25586 11.4888C5.16735 11.7077 5.07499 11.9087 4.95078 12.1035C4.92288 12.3813 4.75928 12.5966 4.73964 12.8754C4.60988 13.2329 4.53967 13.6265 4.54678 14.0251C4.46801 14.4025 4.38747 14.8149 4.53702 15.189C4.52525 15.6049 4.59355 15.9952 4.66106 16.3933C4.79055 16.6238 4.7596 16.9308 4.90706 17.1431C5.01761 17.365 5.06548 17.8839 5.40912 17.7329C5.8068 17.57 6.12204 17.2776 6.50139 17.0792C6.80185 16.8201 7.14067 16.6598 7.44836 16.4089C7.92855 16.0261 8.41734 15.6328 8.79958 15.1528C9.01734 14.8746 9.23206 14.6231 9.37903 14.3315C9.47177 14.0941 9.64631 13.9066 9.71704 13.6552C9.84918 13.4444 9.89721 13.1791 10.0255 12.9674C10.073 12.7042 10.1914 12.4848 10.2482 12.23C10.3094 11.9624 10.4366 11.7299 10.4709 11.4462C10.5949 11.2018 10.5769 10.8874 10.7169 10.6444C10.7188 10.2918 10.9031 10.0087 10.928 9.66697C11.0374 9.44418 11.0496 9.17759 11.1998 8.98186C11.2517 8.7105 11.4145 8.50933 11.5179 8.26566C11.6828 8.00184 11.8542 7.72858 12.0831 7.4714C12.3575 7.13101 12.6356 6.78116 12.9513 6.46539C13.6622 5.7305 14.4577 5.08582 15.2606 4.45601C15.5695 4.27869 15.8511 4.01893 16.1583 3.88018C16.4869 3.69305 16.7736 3.50015 17.126 3.37515C17.7464 3.12129 18.4072 2.94077 19.0836 2.98919C20.6267 3.00444 22.1292 3.39443 23.623 3.73852C24.1686 3.81372 24.7177 3.97172 25.2714 3.91063C25.6077 3.71131 24.9734 3.35917 24.8471 3.13728C24.5695 2.83478 24.2235 2.61525 23.9147 2.35045C23.5769 2.10174 23.2507 1.85603 22.8915 1.64792C22.5959 1.39914 22.259 1.26644 21.924 1.06834C21.5499 0.871871 21.156 0.682626 20.7748 0.523385C20.5247 0.387894 20.2333 0.311194 19.9899 0.211189C19.2901 -0.0133741 18.5361 -0.00723124 17.8063 0.00464093L17.7258 0.011031L17.6362 0.0302282Z" fill="#646464"/>
<path d="M17.4627 11.7985C16.8986 11.9031 16.3205 11.9581 15.7647 12.0963C15.4672 12.2313 15.0936 12.2876 14.7788 12.4302C14.4446 12.5813 14.0651 12.7003 13.7886 12.9175C13.4415 13.0346 13.1654 13.3251 12.8391 13.5011C12.3248 13.8703 11.8774 14.324 11.448 14.7896C11.1695 15.0992 10.9506 15.4403 10.7266 15.782C10.5762 16.036 10.4082 16.2462 10.3261 16.5266C10.1706 16.7234 10.1061 16.9765 10.0211 17.2218C9.89446 17.4388 9.82522 17.7023 9.76088 17.956C9.69165 18.2967 9.57094 18.6266 9.56396 18.9871C9.4303 19.4613 9.48516 19.9727 9.47162 20.4661C9.45734 20.8764 9.49747 21.2802 9.56773 21.6759C9.59149 22.0143 9.73428 22.3078 9.77507 22.6408C9.90925 22.8267 9.89252 23.0977 10.0211 23.2778C10.1264 23.4976 10.1731 23.7429 10.3261 23.9266C10.3816 24.1932 10.5847 24.357 10.6596 24.6153C10.8536 24.8521 10.9878 25.1233 11.2095 25.3717C11.6156 25.8845 12.1013 26.3529 12.6203 26.7606C12.9486 27.0013 13.2835 27.2363 13.6348 27.4473C14.5326 27.9364 15.494 28.3046 16.5091 28.4664C17.6341 28.6626 18.8009 28.5844 19.8897 28.2397C20.5276 28.0872 21.1005 27.7466 21.6872 27.4638C22.3196 27.0607 22.893 26.5607 23.3779 25.9881C23.6059 25.7639 23.7087 25.4994 23.8608 25.2509C23.9697 25.0341 24.0837 24.816 24.1505 24.5746C24.2323 24.2889 24.3555 24.0072 24.3474 23.6884C24.53 23.3541 24.3128 23.0405 24.3296 22.6784C24.1941 22.4407 24.186 22.1263 23.9715 21.9497C23.896 21.6551 23.6093 21.6321 23.5228 21.9175C23.3306 22.2067 23.0879 22.5105 22.8808 22.8198C22.6147 23.1043 22.3789 23.4628 22.0766 23.7466C21.5667 24.2487 21.0877 24.7995 20.4782 25.1792C20.1911 25.3915 19.8225 25.5335 19.4847 25.6883C18.8772 25.9285 18.2268 26.0438 17.5736 25.9974C17.0063 25.9853 16.4425 25.8996 15.8912 25.7703C15.455 25.5491 14.9594 25.4236 14.5572 25.1288C14.2059 24.9222 13.884 24.6654 13.5792 24.3813C13.3347 24.0889 13.0231 23.8114 12.8513 23.4876C12.6942 23.3083 12.6295 23.0632 12.4945 22.8761C12.4091 22.6441 12.2778 22.4518 12.2235 22.2074C12.0947 21.9108 12.0117 21.5815 11.9783 21.244C11.8379 20.8028 11.902 20.3165 11.8863 19.8532C11.86 19.4379 11.9449 19.0483 12.0116 18.6495C12.1359 18.445 12.1074 18.1583 12.2576 17.9688C12.3206 17.6878 12.4524 17.4521 12.5757 17.2043C12.7325 16.975 12.8531 16.7318 13.0444 16.5067C13.4532 16.0069 13.9405 15.5623 14.4732 15.1934C14.7962 15.0014 15.0669 14.8551 15.4061 14.7081C16.2845 14.3601 17.2368 14.1768 18.1819 14.1943C19.0969 14.2659 20.0271 14.4287 20.8589 14.8279C21.1223 14.9318 21.346 15.0441 21.5913 15.2023C21.889 15.405 22.2131 15.5958 22.4736 15.8618C22.9635 16.3238 23.4461 16.8036 23.8608 17.328C24.0858 17.6153 24.3038 17.8707 24.4544 18.1763C24.623 18.3719 24.765 18.5916 24.8748 18.8256C25.0053 19.0446 25.1475 19.2489 25.2424 19.4943C25.3541 19.7101 25.4574 19.9465 25.5508 20.1783C25.6404 20.4328 25.7743 20.6601 25.8218 20.9398C25.9537 21.1566 25.9268 21.4598 26.0678 21.6773C26.1301 22.0571 26.2501 22.417 26.2742 22.8095C26.2238 23.1895 26.4356 23.5252 26.3578 23.9043C26.1984 24.2646 26.3464 24.6972 26.1866 25.059C26.178 25.4331 26.1119 25.8002 25.9996 26.1432C25.9958 26.5338 25.8138 26.8624 25.7885 27.2436C25.6797 27.5369 25.6406 27.8513 25.5508 28.1496C25.4478 28.4159 25.433 28.7165 25.3132 28.9777C25.2634 29.2619 25.1776 29.5352 25.068 29.7922C25.0104 30.0803 24.8778 30.3228 24.797 30.6039C24.6857 30.8227 24.582 31.0569 24.4885 31.2898C24.3744 31.5492 24.1983 31.7569 24.0539 32.0144C23.8104 32.3251 23.606 32.647 23.3239 32.9438C22.9522 33.4438 22.4809 33.877 22.023 34.3061C21.7393 34.5373 21.4618 34.7813 21.1646 34.9833C20.8399 35.1836 20.517 35.3958 20.1909 35.5977C19.9424 35.7067 19.7279 35.8227 19.4712 35.9444C18.814 36.1849 18.1449 36.4769 17.4274 36.4388C16.4554 36.449 15.4839 36.3241 14.5508 36.0497C14.2151 35.9463 13.8458 35.9118 13.5273 35.7827C13.1787 35.6467 12.7778 35.6057 12.4131 35.4919C11.7683 35.3183 11.0891 35.2041 10.4224 35.2865C10.2273 35.5104 10.7818 35.7778 10.8641 36.0242C11.134 36.2372 11.361 36.4979 11.6395 36.7285C11.9895 37.0588 12.357 37.3793 12.7572 37.6434C13.0564 37.8523 13.3577 38.0678 13.6779 38.2531C13.9739 38.4428 14.3182 38.6303 14.661 38.7786C15.5078 39.1719 16.4329 39.3895 17.368 39.386C18.5324 39.4524 19.7255 39.2401 20.7496 38.6669C21.1153 38.4643 21.4711 38.2411 21.8208 38.0171C22.6471 37.4017 23.4186 36.7163 24.1392 35.9792C24.4442 35.6739 24.7306 35.351 25.0197 35.0322C25.3249 34.682 25.626 34.3272 25.9429 33.9863C26.2256 33.6381 26.4952 33.2889 26.8162 32.9713C27.4256 32.2732 28.1222 31.6547 28.7327 30.9573C29.1237 30.5923 29.4487 30.1709 29.8058 29.7776C29.9898 29.5021 30.2163 29.2427 30.3796 28.9709C30.5186 28.7414 30.6954 28.536 30.8141 28.2945C30.91 28.0747 31.0472 27.8833 31.1181 27.6465C31.2763 27.4702 31.2617 27.1972 31.3898 26.9981C31.4476 26.6781 31.6048 26.3926 31.6009 26.0466C31.7722 25.6671 31.6104 25.2115 31.7316 24.8161C31.8412 24.4789 31.6062 24.1225 31.6824 23.7531C31.6736 23.368 31.569 23.0046 31.4902 22.6422C31.4153 22.3925 31.3904 22.1063 31.23 21.908C31.1771 21.6127 30.9021 21.1321 30.5835 21.524C30.2442 21.8499 29.8665 22.1307 29.5227 22.4519C29.2165 22.6826 28.9462 22.9658 28.6108 23.1468C28.3708 23.0317 28.7583 22.6752 28.5244 22.4459C28.4582 21.9669 28.5461 21.4721 28.4481 20.9996C28.3918 20.6335 28.3362 20.2753 28.2737 19.9075C28.1491 19.6495 28.1866 19.3141 28.0277 19.0729C27.9879 18.7953 27.8602 18.5713 27.7908 18.3037C27.6813 18.0996 27.5986 17.869 27.4823 17.6661C27.3682 17.4068 27.1921 17.199 27.0477 16.9415C26.8212 16.6501 26.6266 16.3536 26.3717 16.0719C26.0313 15.7141 25.7592 15.2867 25.3405 15.0073C25.0299 14.7032 24.6887 14.4419 24.3589 14.1628C24.0403 13.9263 23.7043 13.7127 23.3859 13.4898C23.0922 13.3024 22.7551 13.1243 22.4864 12.9459C22.1463 12.8005 21.8441 12.6361 21.5068 12.4995C20.6876 12.1469 19.8121 11.9132 18.9224 11.8287C18.437 11.8043 17.9481 11.7641 17.4627 11.7985Z" fill="#646464"/>
<path d="M19.0177 4.16032C18.3468 4.33085 17.6289 4.37298 16.9951 4.66778C16.5996 4.84382 16.1838 4.99852 15.8362 5.25722C15.5016 5.44972 15.164 5.68736 14.8635 5.95052C14.5473 6.2491 14.2224 6.56346 13.953 6.89244C13.7643 7.13689 13.4962 7.42428 13.4531 7.70193C14.0521 8.15319 14.8013 8.32334 15.4778 8.62073C16.1617 8.84414 16.8461 9.08314 17.5489 9.23541C18.1751 9.26864 18.807 9.27204 19.4326 9.24928C20.391 9.05395 21.3457 8.83488 22.2684 8.5055C23.0922 8.25751 23.9171 7.94001 24.7929 7.97452C25.7408 7.98121 26.6577 8.2564 27.5834 8.42903C28.0156 8.5526 28.468 8.64394 28.8735 8.83695C29.271 9.00461 29.7039 9.1755 30.0571 9.44042C30.4195 9.57965 30.7147 9.88112 31.0219 10.121C31.3569 10.4335 31.6871 10.7622 31.9642 11.1196C32.1578 11.3921 32.3743 11.6004 32.4766 11.9091C32.6142 12.093 32.6989 12.3269 32.8192 12.5249C32.9133 12.7768 33.005 13.0192 33.1193 13.2615C33.1643 13.5367 33.3202 13.7643 33.3645 14.0424C33.4684 14.2702 33.483 14.5366 33.6021 14.7591C33.6493 15.044 33.7859 15.2912 33.8133 15.587C33.9474 15.774 33.9311 16.0428 34.0593 16.226C34.1334 16.4943 34.2596 16.7243 34.3302 16.9894C34.4472 17.263 34.5363 17.5555 34.7827 17.774C35.0899 17.83 35.2188 17.3975 35.3405 17.1906C35.4187 16.8301 35.5207 16.4746 35.5516 16.0941C35.6711 15.7617 35.6586 15.384 35.7297 15.0345C35.7083 14.6031 35.8656 14.1986 35.8253 13.7636C35.8106 13.2417 35.8767 12.6997 35.7385 12.1959C35.751 11.8138 35.6402 11.4605 35.5857 11.0955C35.4892 10.812 35.477 10.4895 35.3443 10.2259C35.2449 9.9908 35.1018 9.78243 34.958 9.57369C34.7109 9.23498 34.364 8.91336 34.0564 8.60138C33.6995 8.21169 33.2499 7.93852 32.8456 7.6068C32.5658 7.40879 32.2512 7.28984 31.9642 7.07742C31.7575 6.97333 31.5366 6.90074 31.3564 6.7617C31.0505 6.65725 30.7645 6.46727 30.4273 6.36569C30.0567 6.16965 29.6122 6.0536 29.2487 5.90747C28.9343 5.8324 28.6372 5.70643 28.3016 5.65059C26.9226 5.25336 25.4845 5.15947 24.0822 4.87925C23.5275 4.75247 22.9774 4.59746 22.4195 4.49383C22.063 4.33951 21.6317 4.33917 21.2463 4.25157C20.509 4.16723 19.7588 4.13127 19.0177 4.16032Z" fill="#646464"/>
<path d="M26.094 9.4343C25.6889 9.57487 26.1107 10.0381 25.999 10.3625C26.1079 10.718 26.1585 11.0831 26.208 11.4588C26.3429 11.7521 26.3065 12.1172 26.454 12.4061C26.4694 12.7194 26.6153 12.9785 26.6651 13.2752C26.7921 13.4778 26.7825 13.7467 26.9369 13.9307C26.9967 14.2016 27.1244 14.4318 27.2408 14.6682C27.3402 14.9033 27.4832 15.1117 27.6271 15.3204C27.8583 15.6119 28.0844 15.9872 28.3967 16.219C29.1495 16.9238 29.9865 17.5556 30.6209 18.3727C30.85 18.6128 30.9757 18.887 31.1708 19.1205C31.2657 19.3659 31.4079 19.5702 31.5384 19.7892C31.6464 20.0138 31.6974 20.2794 31.8468 20.4751C31.9209 20.7435 32.0472 20.9734 32.1178 21.2385C32.2268 21.4853 32.3007 21.7512 32.363 22.0194C32.4918 22.2529 32.5246 22.527 32.6007 22.7845C32.7077 23.1181 32.7335 23.4779 32.8383 23.8166C32.8648 24.1857 32.9672 24.5409 32.9362 24.9208C32.9273 25.4639 32.9693 26.0149 32.8904 26.5527C32.814 26.8913 32.8081 27.2665 32.6785 27.5787C32.6107 27.8515 32.5355 28.1024 32.4416 28.3601C32.3206 28.5635 32.2363 28.7864 32.1365 29.0089C31.9552 29.2329 31.7937 29.5216 31.5866 29.7425C31.0762 30.34 30.4971 30.8784 29.8966 31.3838C29.2632 31.9172 28.6612 32.4925 28.11 33.1111C27.9345 33.3131 27.5337 33.7365 27.9591 33.7924C29.1161 33.6053 30.206 33.1528 31.2975 32.7433C31.5248 32.6039 31.7511 32.5206 31.9729 32.3983C32.2492 32.246 32.582 32.0903 32.8504 31.8854C33.2175 31.6901 33.542 31.4316 33.871 31.1791C34.2077 30.884 34.562 30.574 34.7878 30.1942C34.9642 30.0068 35.0929 29.7798 35.1741 29.528C35.3137 29.3392 35.4065 29.1047 35.4534 28.8637C35.5861 28.5988 35.5936 28.2821 35.6911 28.002C35.7396 27.6557 35.8103 27.3111 35.835 26.9579C35.7903 26.5786 35.9409 26.2337 35.9323 25.86C35.9738 25.4824 35.802 25.1419 35.8359 24.7652C35.8692 24.394 35.7056 24.0666 35.7254 23.6963C35.6178 23.3592 35.5924 23.0061 35.5167 22.6567C35.3866 22.3838 35.4231 22.0329 35.2707 21.7686C35.2433 21.4727 35.1067 21.2255 35.0595 20.9407C34.9453 20.7324 34.9128 20.4899 34.8219 20.2723C34.7646 20.0169 34.6152 19.8022 34.5766 19.5397C34.4631 19.284 34.3488 19.038 34.2765 18.7618C34.1279 18.57 34.0757 18.3292 33.9715 18.1059C33.8597 17.8902 33.7565 17.6538 33.663 17.422C33.5905 17.1734 33.4224 16.9826 33.392 16.7087C33.2834 16.4755 33.1582 16.2387 33.1176 15.9669C32.9531 15.7663 32.9771 15.4761 32.8459 15.2559C32.7955 14.9984 32.6943 14.7611 32.6007 14.5233C32.5434 14.2679 32.394 14.0532 32.3554 13.7907C32.2359 13.5552 32.1165 13.328 32.0553 13.0612C31.9264 12.8738 31.8397 12.6692 31.7503 12.4536C31.5577 12.2121 31.4116 11.9445 31.2003 11.6848C30.9047 11.3075 30.5604 10.9586 30.1868 10.6584C29.8456 10.3983 29.5077 10.1918 29.1418 9.99117C28.7772 9.87528 28.4492 9.65886 28.0681 9.59376C27.4805 9.45432 26.871 9.35734 26.2666 9.39173C26.2079 9.40054 26.1498 9.41417 26.094 9.4343Z" fill="#646464"/>
</g>
<defs>
<clipPath id="clip0_1522_288">
<rect width="35.9336" height="39.3962" fill="white"/>
</clipPath>
</defs>
</svg>
